<svg xmlns="http://www.w3.org/2000/svg" id="heal-logo" viewBox="0 0 1896 459.2">
  <defs>
    <style>
      .cls-1, .cls-2 {
        fill: #6b6c6e;
      }

      .cls-3 {
        fill: #f29124;
      }

      .cls-2 {
        font-family: 'Open Sans';
        font-size: 89.24px;
        font-variation-settings: 'wght' 400, 'wdth' 100;
      }
    </style>
  </defs>
  <g id="LogoText2">
    <text class="cls-2" transform="translate(1244.03 428.78)"><tspan x="0" y="0">LABORATORY</tspan></text>
    <text class="cls-2" transform="translate(1244.02 94.24)"><tspan x="0" y="0">HEURISTIC AND</tspan></text>
    <text class="cls-2" transform="translate(1244.02 205.75)"><tspan x="0" y="0">EVOLUTIONARY</tspan></text>
    <text class="cls-2" transform="translate(1244.03 317.27)"><tspan x="0" y="0">ALGORITHMS</tspan></text>
  </g>
  <g id="Spacers">
    <polygon class="cls-1" points="236.9 175.24 165.51 175.24 165.51 0 0 0 0 459.2 165.51 459.2 165.51 301.8 236.9 301.8 236.9 175.24"/>
    <polygon class="cls-3" points="929.99 459.2 1096.87 459.2 1096.6 335.88 971.25 335.88 971.16 1.62 806.43 1.62 806.43 173.14 929.99 459.2"/>
  </g>
  <g id="LogoLayer2">
    <polygon class="cls-1" points="704.8 0 648.2 0 604.94 99.05 663.64 269.35 581.83 269.35 541.93 360.22 690.34 360.22 725.96 459.2 905.22 459.2 704.8 0"/>
    <polyline class="cls-3" points="421.88 459.2 465.33 360.22 427.15 360.22 427.15 269.35 505.02 269.35 546.12 175.24 427.15 175.24 427.15 98.98 579.44 98.98 622.67 0 263.27 0 263.27 459.2"/>
  </g>
</svg>