<?xml version="1.0" encoding="UTF-8" standalone="no"?>
<!-- Created with Inkscape (http://www.inkscape.org/) -->

<svg
   xmlns:dc="http://purl.org/dc/elements/1.1/"
   xmlns:cc="http://creativecommons.org/ns#"
   xmlns:rdf="http://www.w3.org/1999/02/22-rdf-syntax-ns#"
   xmlns:svg="http://www.w3.org/2000/svg"
   xmlns="http://www.w3.org/2000/svg"
   xmlns:sodipodi="http://sodipodi.sourceforge.net/DTD/sodipodi-0.dtd"
   xmlns:inkscape="http://www.inkscape.org/namespaces/inkscape"
   width="300.98999mm"
   height="150.02933mm"
   viewBox="0 0 300.98999 150.02933"
   version="1.1"
   id="svg8"
   inkscape:version="0.92.3 (2405546, 2018-03-11)"
   sodipodi:docname="gp_cycle.svg">
  <defs
     id="defs2">
    <clipPath
       clipPathUnits="userSpaceOnUse"
       id="clipPath40">
      <path
         d="M 1.4305e-5,0 H 960.00001 V 540 H 1.4305e-5 Z"
         id="path38"
         inkscape:connector-curvature="0"
         style="clip-rule:evenodd" />
    </clipPath>
    <clipPath
       clipPathUnits="userSpaceOnUse"
       id="clipPath52">
      <path
         d="M 1.4305e-5,0 H 960.00001 V 540 H 1.4305e-5 Z"
         id="path50"
         inkscape:connector-curvature="0"
         style="clip-rule:evenodd" />
    </clipPath>
    <clipPath
       clipPathUnits="userSpaceOnUse"
       id="clipPath68">
      <path
         d="M 1.4305e-5,0 H 960.00001 V 540 H 1.4305e-5 Z"
         id="path66"
         inkscape:connector-curvature="0"
         style="clip-rule:evenodd" />
    </clipPath>
    <clipPath
       clipPathUnits="userSpaceOnUse"
       id="clipPath80">
      <path
         d="M 1.4305e-5,0 H 960.00001 V 540 H 1.4305e-5 Z"
         id="path78"
         inkscape:connector-curvature="0"
         style="clip-rule:evenodd" />
    </clipPath>
    <clipPath
       clipPathUnits="userSpaceOnUse"
       id="clipPath96">
      <path
         d="M 1.4305e-5,0 H 960.00001 V 540 H 1.4305e-5 Z"
         id="path94"
         inkscape:connector-curvature="0"
         style="clip-rule:evenodd" />
    </clipPath>
    <clipPath
       clipPathUnits="userSpaceOnUse"
       id="clipPath112">
      <path
         d="M 1.4305e-5,0 H 960.00001 V 540 H 1.4305e-5 Z"
         id="path110"
         inkscape:connector-curvature="0"
         style="clip-rule:evenodd" />
    </clipPath>
    <clipPath
       clipPathUnits="userSpaceOnUse"
       id="clipPath124">
      <path
         d="M 1.4305e-5,0 H 960.00001 V 540 H 1.4305e-5 Z"
         id="path122"
         inkscape:connector-curvature="0"
         style="clip-rule:evenodd" />
    </clipPath>
    <clipPath
       clipPathUnits="userSpaceOnUse"
       id="clipPath136">
      <path
         d="M 3.41e-6,540 H 960 V 0 L -1.6275e-5,6.1035e-5"
         id="path134"
         inkscape:connector-curvature="0"
         style="clip-rule:evenodd" />
    </clipPath>
    <clipPath
       clipPathUnits="userSpaceOnUse"
       id="clipPath148">
      <path
         d="M -3.463e-6,540 H 960 V 0 H -2.3148e-5"
         id="path146"
         inkscape:connector-curvature="0"
         style="clip-rule:evenodd" />
    </clipPath>
    <clipPath
       clipPathUnits="userSpaceOnUse"
       id="clipPath162">
      <path
         d="M 1.4305e-5,0 H 960.00001 V 540 H 1.4305e-5 Z"
         id="path160"
         inkscape:connector-curvature="0"
         style="clip-rule:evenodd" />
    </clipPath>
    <clipPath
       clipPathUnits="userSpaceOnUse"
       id="clipPath178">
      <path
         d="M 1.4305e-5,0 H 960.00001 V 540 H 1.4305e-5 Z"
         id="path176"
         inkscape:connector-curvature="0"
         style="clip-rule:evenodd" />
    </clipPath>
    <clipPath
       clipPathUnits="userSpaceOnUse"
       id="clipPath190">
      <path
         d="M 2.7035e-5,540 H 960 V 1.2207e-4 H 2.7035e-5"
         id="path188"
         inkscape:connector-curvature="0"
         style="clip-rule:evenodd" />
    </clipPath>
    <clipPath
       clipPathUnits="userSpaceOnUse"
       id="clipPath212">
      <path
         d="M 1.4305e-5,0 H 960.00001 V 540 H 1.4305e-5 Z"
         id="path210"
         inkscape:connector-curvature="0"
         style="clip-rule:evenodd" />
    </clipPath>
    <clipPath
       clipPathUnits="userSpaceOnUse"
       id="clipPath224">
      <path
         d="M 1.4305e-5,0 H 960.00001 V 540 H 1.4305e-5 Z"
         id="path222"
         inkscape:connector-curvature="0"
         style="clip-rule:evenodd" />
    </clipPath>
    <clipPath
       clipPathUnits="userSpaceOnUse"
       id="clipPath250">
      <path
         d="M 1.4305e-5,0 H 960.00001 V 540 H 1.4305e-5 Z"
         id="path248"
         inkscape:connector-curvature="0"
         style="clip-rule:evenodd" />
    </clipPath>
    <clipPath
       clipPathUnits="userSpaceOnUse"
       id="clipPath266">
      <path
         d="M 1.4305e-5,0 H 960.00001 V 540 H 1.4305e-5 Z"
         id="path264"
         inkscape:connector-curvature="0"
         style="clip-rule:evenodd" />
    </clipPath>
    <clipPath
       clipPathUnits="userSpaceOnUse"
       id="clipPath278">
      <path
         d="M 1.4305e-5,0 H 960.00001 V 540 H 1.4305e-5 Z"
         id="path276"
         inkscape:connector-curvature="0"
         style="clip-rule:evenodd" />
    </clipPath>
    <clipPath
       clipPathUnits="userSpaceOnUse"
       id="clipPath290">
      <path
         d="M 1.4305e-5,0 H 960.00001 V 540 H 1.4305e-5 Z"
         id="path288"
         inkscape:connector-curvature="0"
         style="clip-rule:evenodd" />
    </clipPath>
    <clipPath
       clipPathUnits="userSpaceOnUse"
       id="clipPath304">
      <path
         d="M -1.7581e-5,540 H 960 V 0 H -5.6951e-5"
         id="path302"
         inkscape:connector-curvature="0"
         style="clip-rule:evenodd" />
    </clipPath>
    <clipPath
       clipPathUnits="userSpaceOnUse"
       id="clipPath318">
      <path
         d="M 1.4305e-5,0 H 960.00001 V 540 H 1.4305e-5 Z"
         id="path316"
         inkscape:connector-curvature="0"
         style="clip-rule:evenodd" />
    </clipPath>
    <clipPath
       clipPathUnits="userSpaceOnUse"
       id="clipPath330">
      <path
         d="M 1.4305e-5,0 H 960.00001 V 540 H 1.4305e-5 Z"
         id="path328"
         inkscape:connector-curvature="0"
         style="clip-rule:evenodd" />
    </clipPath>
    <clipPath
       clipPathUnits="userSpaceOnUse"
       id="clipPath342">
      <path
         d="M 1.4305e-5,0 H 960.00001 V 540 H 1.4305e-5 Z"
         id="path340"
         inkscape:connector-curvature="0"
         style="clip-rule:evenodd" />
    </clipPath>
    <clipPath
       clipPathUnits="userSpaceOnUse"
       id="clipPath354">
      <path
         d="M 1.4305e-5,0 H 960.00001 V 540 H 1.4305e-5 Z"
         id="path352"
         inkscape:connector-curvature="0"
         style="clip-rule:evenodd" />
    </clipPath>
    <clipPath
       clipPathUnits="userSpaceOnUse"
       id="clipPath368">
      <path
         d="M 1.4305e-5,0 H 960.00001 V 540 H 1.4305e-5 Z"
         id="path366"
         inkscape:connector-curvature="0"
         style="clip-rule:evenodd" />
    </clipPath>
  </defs>
  <sodipodi:namedview
     id="base"
     pagecolor="#ffffff"
     bordercolor="#666666"
     borderopacity="1.0"
     inkscape:pageopacity="0.0"
     inkscape:pageshadow="2"
     inkscape:zoom="0.49497475"
     inkscape:cx="-171.24978"
     inkscape:cy="-103.49048"
     inkscape:document-units="mm"
     inkscape:current-layer="g18"
     showgrid="false"
     fit-margin-top="0"
     fit-margin-left="0"
     fit-margin-right="0"
     fit-margin-bottom="0"
     inkscape:window-width="1920"
     inkscape:window-height="1137"
     inkscape:window-x="-8"
     inkscape:window-y="-8"
     inkscape:window-maximized="1" />
  <metadata
     id="metadata5">
    <rdf:RDF>
      <cc:Work
         rdf:about="">
        <dc:format>image/svg+xml</dc:format>
        <dc:type
           rdf:resource="http://purl.org/dc/dcmitype/StillImage" />
        <dc:title></dc:title>
      </cc:Work>
    </rdf:RDF>
  </metadata>
  <g
     inkscape:label="Layer 1"
     inkscape:groupmode="layer"
     id="layer1"
     transform="translate(60.536661,-19.390097)">
    <g
       transform="translate(-110.91756,-108.76525)"
       id="layer1-1"
       inkscape:label="Layer 1">
      <g
         id="g18"
         inkscape:label="gp_cycle"
         transform="matrix(0.35277777,0,0,-0.35277777,37.04167,301.53574)">
        <path
           d="m 644.83199,292.45199 82.08,40.5 82.08,-40.5 -82.08,-40.5 z"
           style="fill:#ffffff;fill-opacity:1;fill-rule:evenodd;stroke:none"
           id="path30"
           inkscape:connector-curvature="0" />
        <path
           d="m 644.83199,292.45199 82.08,40.5 82.08,-40.5 -82.08,-40.5 z"
           style="fill:none;stroke:#000000;stroke-width:0.95999998;stroke-linecap:butt;stroke-linejoin:miter;stroke-miterlimit:10;stroke-dasharray:none;stroke-opacity:1"
           id="path32"
           inkscape:connector-curvature="0" />
        <g
           transform="translate(-4.7280107,-4.7280107)"
           id="g34">
          <g
             id="g36"
             clip-path="url(#clipPath40)">
            <text
               y="0"
               transform="matrix(1,0,0,-1,704.28,301.97)"
               style="font-variant:normal;font-weight:normal;font-size:18px;font-family:Calibri;-inkscape-font-specification:Calibri;writing-mode:lr-tb;fill:#000000;fill-opacity:1;fill-rule:nonzero;stroke:none"
               id="text44">
              <tspan
                 x="0 8.8739996 17.496 23.507999 32.472 41.868 47.897999"
                 y="0"
                 sodipodi:role="line"
                 id="tspan42">Parents</tspan>
            </text>
          </g>
        </g>
        <g
           transform="translate(-4.7280107,-4.7280107)"
           id="g46">
          <g
             id="g48"
             clip-path="url(#clipPath52)">
            <text
               y="0"
               transform="matrix(1,0,0,-1,698.88,280.37)"
               style="font-variant:normal;font-weight:normal;font-size:18.02400017px;font-family:Calibri;-inkscape-font-specification:Calibri;writing-mode:lr-tb;fill:#000000;fill-opacity:1;fill-rule:nonzero;stroke:none"
               id="text56">
              <tspan
                 x="0 7.0473838 16.059383 20.132809 29.108761 36.73291 42.698856 46.772282 56.270927"
                 y="0"
                 sodipodi:role="line"
                 id="tspan54">selection</tspan>
            </text>
          </g>
        </g>
        <path
           d="m 319.15199,408.89199 c 0,5.31 4.31,9.62 9.62,9.62 h 102.32 c 5.31,0 9.62,-4.31 9.62,-9.62 v -38.48 c 0,-5.31 -4.31,-9.62 -9.62,-9.62 h -102.32 c -5.31,0 -9.62,4.31 -9.62,9.62 z"
           style="fill:#ffffff;fill-opacity:1;fill-rule:evenodd;stroke:none"
           id="path58"
           inkscape:connector-curvature="0" />
        <path
           d="m 319.15199,408.89199 c 0,5.31 4.31,9.62 9.62,9.62 h 102.32 c 5.31,0 9.62,-4.31 9.62,-9.62 v -38.48 c 0,-5.31 -4.31,-9.62 -9.62,-9.62 h -102.32 c -5.31,0 -9.62,4.31 -9.62,9.62 z"
           style="fill:none;stroke:#000000;stroke-width:0.95999998;stroke-linecap:butt;stroke-linejoin:miter;stroke-miterlimit:10;stroke-dasharray:none;stroke-opacity:1"
           id="path60"
           inkscape:connector-curvature="0" />
        <g
           transform="translate(-4.7280107,-4.7280107)"
           id="g62">
          <g
             id="g64"
             clip-path="url(#clipPath68)">
            <text
               y="0"
               transform="matrix(1,0,0,-1,345.14,399.17)"
               style="font-variant:normal;font-weight:normal;font-size:18px;font-family:Calibri;-inkscape-font-specification:Calibri;writing-mode:lr-tb;fill:#000000;fill-opacity:1;fill-rule:nonzero;stroke:none"
               id="text72">
              <tspan
                 x="0 8.8739996 18.360001 27.809999 37.259998 41.400002 49.914001 55.944 59.993999 69.480003"
                 y="0"
                 sodipodi:role="line"
                 id="tspan70">Population</tspan>
            </text>
          </g>
        </g>
        <g
           transform="translate(-4.7280107,-4.7280107)"
           id="g74">
          <g
             id="g76"
             clip-path="url(#clipPath80)">
            <text
               y="0"
               transform="matrix(1,0,0,-1,348.38,377.57)"
               style="font-variant:normal;font-weight:normal;font-size:18px;font-family:Calibri;-inkscape-font-specification:Calibri;writing-mode:lr-tb;fill:#000000;fill-opacity:1;fill-rule:nonzero;stroke:none"
               id="text84">
              <tspan
                 x="0 9.4860001 14.976 19.044001 33.425999 42.911999 52.416 61.380001 65.519997"
                 y="0"
                 sodipodi:role="line"
                 id="tspan82">of models</tspan>
            </text>
          </g>
        </g>
        <path
           d="m 153.55199,171.73199 c 0,17.79 35,32.22 78.18,32.22 43.18,0 78.18,-14.43 78.18,-32.22 0,-17.79 -35,-32.22 -78.18,-32.22 -43.18,0 -78.18,14.43 -78.18,32.22 z"
           style="fill:#ffffff;fill-opacity:1;fill-rule:evenodd;stroke:none"
           id="path86"
           inkscape:connector-curvature="0" />
        <path
           d="m 153.55199,171.73199 c 0,17.79 35,32.22 78.18,32.22 43.18,0 78.18,-14.43 78.18,-32.22 0,-17.79 -35,-32.22 -78.18,-32.22 -43.18,0 -78.18,14.43 -78.18,32.22 z"
           style="fill:none;stroke:#000000;stroke-width:0.95999998;stroke-linecap:butt;stroke-linejoin:miter;stroke-miterlimit:10;stroke-dasharray:none;stroke-opacity:1"
           id="path88"
           inkscape:connector-curvature="0" />
        <g
           transform="translate(-4.7280107,-4.7280107)"
           id="g90">
          <g
             id="g92"
             clip-path="url(#clipPath96)">
            <text
               y="0"
               transform="matrix(1,0,0,-1,198.38,170.35)"
               style="font-variant:normal;font-weight:normal;font-size:18px;font-family:Calibri;-inkscape-font-specification:Calibri;writing-mode:lr-tb;fill:#000000;fill-opacity:1;fill-rule:nonzero;stroke:none"
               id="text100">
              <tspan
                 x="0 8.4060001 16.326 24.948 29.087999 38.537998 47.051998 53.082001 57.132 66.617996"
                 y="0"
                 sodipodi:role="line"
                 id="tspan98">Evaluation</tspan>
            </text>
          </g>
        </g>
        <path
           d="m 149.59199,291.01199 82.14,40.5 82.14,-40.5 -82.14,-40.5 z"
           style="fill:#ffffff;fill-opacity:1;fill-rule:evenodd;stroke:none"
           id="path102"
           inkscape:connector-curvature="0" />
        <path
           d="m 149.59199,291.01199 82.14,40.5 82.14,-40.5 -82.14,-40.5 z"
           style="fill:none;stroke:#000000;stroke-width:0.95999998;stroke-linecap:butt;stroke-linejoin:miter;stroke-miterlimit:10;stroke-dasharray:none;stroke-opacity:1"
           id="path104"
           inkscape:connector-curvature="0" />
        <g
           transform="translate(-31.983093,-15.478059)"
           id="g106">
          <g
             id="g108"
             clip-path="url(#clipPath112)">
            <text
               x="217.78"
               y="-300.45999"
               transform="scale(1,-1)"
               style="font-style:normal;font-variant:normal;font-weight:normal;font-stretch:normal;font-size:18px;font-family:Calibri;-inkscape-font-specification:'Calibri, Normal';font-variant-ligatures:normal;font-variant-caps:normal;font-variant-numeric:normal;writing-mode:lr-tb;fill:#000000;fill-opacity:1;fill-rule:nonzero;stroke:none"
               id="text116">
              <tspan
                 y="-300.45999"
                 x="217.78"
                 id="tspan200"
                 sodipodi:role="line">Replacement</tspan>
            </text>
          </g>
        </g>
        <g
           transform="translate(-4.7280107,-4.7280107)"
           id="g118">
          <g
             id="g120"
             clip-path="url(#clipPath124)" />
        </g>
        <g
           transform="translate(-4.7280107,-4.7280107)"
           id="g130">
          <g
             id="g132"
             clip-path="url(#clipPath136)">
            <path
               d="m 235.68,336.2 0.03,1.38 0.1,1.4 0.16,1.39 0.22,1.4 0.29,1.39 0.34,1.38 0.41,1.38 0.46,1.38 0.52,1.36 0.57,1.37 0.63,1.35 0.68,1.34 0.74,1.34 0.79,1.32 0.83,1.31 0.89,1.31 0.93,1.29 0.98,1.28 1.03,1.26 1.07,1.26 2.27,2.46 2.45,2.41 2.59,2.33 2.76,2.26 2.9,2.19 3.03,2.1 3.16,2.02 3.29,1.93 3.39,1.83 3.5,1.73 3.58,1.62 3.69,1.51 3.76,1.39 3.84,1.26 3.89,1.14 3.96,1 4,0.87 4.04,0.71 4.09,0.58 3.28,0.28 0.13,-1.55 -3.26,-0.28 h 0.04 l -4.05,-0.57 h 0.03 l -4.01,-0.71 0.03,0.01 -3.98,-0.86 0.03,0.01 -3.93,-1 0.03,0.01 -3.87,-1.13 h 0.02 l -3.81,-1.25 0.03,0.01 -3.74,-1.38 0.03,0.01 -3.66,-1.5 0.02,0.01 -3.56,-1.61 0.02,0.01 -3.47,-1.71 0.03,0.01 -3.37,-1.82 0.02,0.01 -3.26,-1.91 0.03,0.02 -3.14,-2 0.03,0.01 -3.01,-2.08 0.02,0.01 -2.87,-2.16 0.03,0.02 -2.73,-2.25 0.02,0.03 -2.57,-2.31 0.03,0.02 -2.42,-2.38 0.03,0.03 -2.25,-2.44 0.02,0.03 -1.06,-1.24 0.01,0.01 -1.01,-1.25 0.01,0.02 -0.96,-1.26 0.01,0.02 -0.92,-1.28 0.01,0.02 -0.87,-1.28 0.01,0.01 -0.82,-1.29 0.01,0.03 -0.77,-1.31 0.01,0.02 -0.73,-1.31 0.02,0.03 -0.67,-1.32 0.01,0.02 -0.61,-1.33 0.01,0.03 -0.57,-1.34 0.01,0.03 -0.51,-1.34 0.01,0.02 -0.45,-1.34 0.01,0.03 -0.39,-1.35 v 0.03 L 238,342.8 v 0.03 l -0.27,-1.35 v 0.03 l -0.21,-1.37 v 0.04 l -0.16,-1.36 0.01,0.03 -0.1,-1.36 v 0.04 l -0.03,-1.37 z m 77.95,62.68 10.24,-4.48 -9.72,-5.51 z"
               style="fill:#000000;fill-opacity:1;fill-rule:nonzero;stroke:none"
               id="path138"
               inkscape:connector-curvature="0" />
          </g>
        </g>
        <path
           d="m 440.77199,390.43199 h 2.97 l 2.95,-0.01 h 2.9 l 2.83,-0.02 2.74,-0.02 2.63,-0.01 2.48,-0.02 1.18,-0.02 v 0 l 1.14,-0.01 1.1,-0.01 1.04,-0.02 0.99,-0.01 h -0.01 l 0.94,-0.01 0.88,-0.01 0.82,-0.02 0.75,-0.01 0.68,-0.02 0.63,-0.01 0.54,-0.02 0.47,-0.01 0.41,-0.02 0.32,-0.02 h -0.01 l 0.24,-0.02 0.24,-0.02 0.12,-0.05 0.05,-0.01 -0.16,0.04 0.13,-0.02 h -0.03 l 0.22,-0.01 h -0.01 l 0.31,-0.02 h -0.01 l 0.39,-0.01 h -0.01 l 0.47,-0.02 h -0.01 l 0.54,-0.01 v 0 l 0.62,-0.02 0.68,-0.01 0.75,-0.02 0.82,-0.01 0.88,-0.02 0.93,-0.01 h -0.01 l 0.99,-0.01 1.05,-0.01 1.09,-0.02 v 0 l 1.14,-0.01 1.18,-0.01 h -0.01 l 2.49,-0.02 h -0.01 l 2.63,-0.02 2.74,-0.01 2.64,-0.01 v -1.56 l -2.65,0.01 -2.74,0.01 -2.63,0.02 -2.48,0.02 -1.18,0.02 v 0 h -1.14 l -1.1,0.02 -1.04,0.01 h 0.01 l -1,0.01 -0.93,0.02 -0.88,0.01 -0.82,0.02 -0.75,0.01 -0.68,0.02 -0.63,0.01 -0.54,0.02 -0.47,0.01 -0.4,0.02 -0.32,0.01 -0.24,0.02 -0.24,0.02 -0.12,0.05 -0.05,0.01 0.16,-0.04 -0.13,0.02 h 0.03 l -0.22,0.01 -0.31,0.02 h 0.02 l -0.39,0.02 h 0.01 l -0.47,0.01 h 0.01 l -0.54,0.02 v 0 l -0.62,0.01 -0.68,0.02 -0.75,0.01 -0.82,0.02 -0.88,0.01 h 0.01 l -0.93,0.01 -0.99,0.02 -1.05,0.01 -1.09,0.02 v 0 h -1.14 l -1.18,0.02 h 0.01 l -2.49,0.02 h 0.01 l -2.63,0.02 -2.74,0.01 -2.82,0.02 h -2.9 l -2.95,0.01 h -2.97 z m 53.46,3.56 9.99,-5.02 -10.01,-4.98 z"
           style="fill:#000000;fill-opacity:1;fill-rule:nonzero;stroke:none"
           id="path140"
           inkscape:connector-curvature="0" />
        <g
           transform="translate(-4.7280107,-4.7280107)"
           id="g142">
          <g
             id="g144"
             clip-path="url(#clipPath148)">
            <path
               d="m 235.68,208.66 v 4.34 2.12 2.08 2 1.93 1.81 1.71 1.56 1.41 0.64 0.6 0.56 0.5 0.45 0.4 0.33 0.29 0.22 0.17 0.1 0.03 0.03 0.11 0.16 0.23 0.28 0.34 0.4 0.46 0.5 0.55 0.6 0.64 1.41 1.56 1.7 1.83 1.92 1.55 h 1.56 v -1.55 -1.92 -1.83 -1.7 -1.56 -1.41 -0.64 -0.6 -0.55 -0.5 -0.46 -0.4 -0.34 -0.28 -0.23 -0.16 -0.11 -0.03 -0.03 -0.1 -0.17 -0.22 -0.29 -0.33 -0.4 -0.45 -0.5 -0.56 -0.6 -0.64 -1.41 -1.56 -1.71 -1.81 -1.93 -2 -2.08 -2.12 -4.34 z m -4.22,36.52 5,10 5,-10 z"
               style="fill:#000000;fill-opacity:1;fill-rule:nonzero;stroke:none"
               id="path150"
               inkscape:connector-curvature="0" />
          </g>
        </g>
        <path
           d="m 397.51199,98.891989 c 0,17.790001 35,32.220001 78.18,32.220001 43.18,0 78.18,-14.43 78.18,-32.220001 0,-17.795 -35,-32.22 -78.18,-32.22 -43.18,0 -78.18,14.425 -78.18,32.22 z"
           style="fill:#ffffff;fill-opacity:1;fill-rule:evenodd;stroke:none"
           id="path152"
           inkscape:connector-curvature="0" />
        <path
           d="m 397.51199,98.891989 c 0,17.790001 35,32.220001 78.18,32.220001 43.18,0 78.18,-14.43 78.18,-32.220001 0,-17.795 -35,-32.22 -78.18,-32.22 -43.18,0 -78.18,14.425 -78.18,32.22 z"
           style="fill:none;stroke:#000000;stroke-width:0.95999998;stroke-linecap:butt;stroke-linejoin:miter;stroke-miterlimit:10;stroke-dasharray:none;stroke-opacity:1"
           id="path154"
           inkscape:connector-curvature="0" />
        <g
           transform="translate(-3.2280107,-4.7280107)"
           id="g156">
          <g
             id="g158"
             clip-path="url(#clipPath162)">
            <text
               y="0"
               transform="matrix(1,0,0,-1,431.35,97.488)"
               style="font-variant:normal;font-weight:normal;font-size:18px;font-family:Calibri;-inkscape-font-specification:Calibri;writing-mode:lr-tb;fill:#000000;fill-opacity:1;fill-rule:nonzero;stroke:none"
               id="text166">
              <tspan
                 x="0 15.39 24.011999 33.462002 37.602001 47.051998 56.501999 60.641998 69.120003 75.150002 79.199997 88.685997"
                 y="0"
                 sodipodi:role="line"
                 id="tspan164">Manipulation</tspan>
            </text>
          </g>
        </g>
        <path
           d="m 648.79199,171.73199 c 0,17.79 35,32.22 78.18,32.22 43.18,0 78.18,-14.43 78.18,-32.22 0,-17.79 -35,-32.22 -78.18,-32.22 -43.18,0 -78.18,14.43 -78.18,32.22 z"
           style="fill:#ffffff;fill-opacity:1;fill-rule:evenodd;stroke:none"
           id="path168"
           inkscape:connector-curvature="0" />
        <path
           d="m 648.79199,171.73199 c 0,17.79 35,32.22 78.18,32.22 43.18,0 78.18,-14.43 78.18,-32.22 0,-17.79 -35,-32.22 -78.18,-32.22 -43.18,0 -78.18,14.43 -78.18,32.22 z"
           style="fill:none;stroke:#000000;stroke-width:0.95999998;stroke-linecap:butt;stroke-linejoin:miter;stroke-miterlimit:10;stroke-dasharray:none;stroke-opacity:1"
           id="path170"
           inkscape:connector-curvature="0" />
        <g
           transform="translate(-1.7280107,-4.7280107)"
           id="g172">
          <g
             id="g174"
             clip-path="url(#clipPath178)">
            <text
               y="0"
               transform="matrix(1,0,0,-1,676.61,170.35)"
               style="font-variant:normal;font-weight:normal;font-size:18px;font-family:Calibri;-inkscape-font-specification:Calibri;writing-mode:lr-tb;fill:#000000;fill-opacity:1;fill-rule:nonzero;stroke:none"
               id="text182">
              <tspan
                 x="0 9.3599997 18.323999 25.794001 35.279999 49.661999 59.112 63.251999 72.702003 81.234001 87.264 91.314003 100.8"
                 y="0"
                 sodipodi:role="line"
                 id="tspan180">Recombination</tspan>
            </text>
          </g>
        </g>
        <g
           transform="translate(-4.7280107,-4.7280107)"
           id="g184">
          <g
             id="g186"
             clip-path="url(#clipPath190)">
            <path
               d="m 732.48,256.62 v -4.48 -2.19 -2.15 -2.07 -1.99 -1.87 -1.76 -1.62 -1.45 -0.66 -0.62 -0.57 -0.52 -0.47 -0.41 -0.35 -0.29 -0.24 -0.17 -0.1 -0.03 -0.04 -0.1 -0.17 -0.23 -0.3 -0.35 -0.41 -0.47 -0.51 -0.57 -0.62 -0.67 -1.45 -1.62 -1.76 -1.87 -1.99 -1.89 h -1.56 v 1.89 1.99 1.87 1.76 1.62 1.45 0.67 0.62 0.57 0.51 0.47 0.41 0.35 0.3 0.23 0.17 0.1 0.04 0.03 0.1 0.17 0.24 0.29 0.35 0.41 0.47 0.52 0.57 0.62 0.66 1.45 1.62 1.76 1.87 1.99 2.07 2.15 2.19 4.48 z m 4.22,-38.03 -5,-10 -5,10 z"
               style="fill:#000000;fill-opacity:1;fill-rule:nonzero;stroke:none"
               id="path192"
               inkscape:connector-curvature="0" />
          </g>
        </g>
        <path
           d="m 648.73199,172.39199 -16.21,-0.23 -16.11,-0.69 -15.83,-1.09 -7.79,-0.69 -7.68,-0.79 -7.55,-0.88 -7.4,-0.96 -7.25,-1.05 -7.08,-1.12 -6.88,-1.21 -6.68,-1.26 -6.46,-1.33 -6.22,-1.41 -5.97,-1.46 -5.7,-1.52 -5.41,-1.56 -5.12,-1.62 -4.81,-1.67 -4.47,-1.7 -4.13,-1.75 -3.77,-1.79 -3.4,-1.81 -3,-1.86 -2.64,-1.91 -1.51,-1.75 1.19,-1.02 1.44,1.68 -0.14,-0.12 2.55,1.84 -0.04,-0.03 2.95,1.83 -0.04,-0.03 3.36,1.8 -0.03,-0.02 3.73,1.77 -0.03,-0.01 4.1,1.74 -0.02,-0.01 4.45,1.69 -0.03,-0.01 4.79,1.66 -0.02,-0.01 5.1,1.62 -0.02,-0.01 5.4,1.56 h -0.02 l 5.69,1.51 h -0.02 l 5.96,1.45 h -0.02 l 6.21,1.4 h -0.02 l 6.45,1.33 -0.01,-0.01 6.67,1.27 h -0.01 l 6.87,1.2 h -0.02 l 7.07,1.11 h -0.01 l 7.24,1.05 h -0.01 l 7.39,0.96 h -0.01 l 7.54,0.88 h -0.01 l 7.66,0.78 h -0.01 l 7.78,0.69 h -0.02 l 15.82,1.1 h -0.02 l 16.08,0.68 h -0.02 l 16.2,0.23 z m -172.27,-30.22 -0.77,-11.16 9.38,6.08 z"
           style="fill:#000000;fill-opacity:1;fill-rule:nonzero;stroke:none"
           id="path194"
           inkscape:connector-curvature="0" />
        <path
           d="m 397.51199,98.071989 -15.54,0.23 -15.42,0.68 -15.18,1.100001 -7.46,0.69 -7.35,0.79 -7.23,0.88 -7.1,0.96 -6.95,1.05 -6.78,1.12 -6.6,1.2 -6.4,1.27 -6.18,1.34 -5.97,1.4 -5.72,1.46 -5.46,1.52 -5.19,1.56 -4.9,1.62 -4.61,1.67 -4.28,1.71 -3.96,1.74 -3.61,1.79 -3.26,1.82 -2.88,1.85 -2.54,1.92 -1.37,1.7 1.21,0.98 1.31,-1.62 -0.14,0.13 2.45,-1.84 -0.05,0.03 2.83,-1.82 -0.04,0.02 3.22,-1.8 -0.03,0.02 3.57,-1.77 -0.03,0.01 3.93,-1.73 -0.02,0.01 4.26,-1.7 -0.03,0.01 4.59,-1.66 -0.03,0.01 4.89,-1.61 h -0.02 l 5.17,-1.56 -0.01,0.01 5.44,-1.52 -0.01,0.01 5.7,-1.46 h -0.01 l 5.95,-1.39 h -0.02 l 6.17,-1.33 h -0.01 l 6.39,-1.27 h -0.01 l 6.58,-1.2 -0.01,0.01 6.77,-1.12 h -0.01 l 6.93,-1.05 h -0.01 l 7.09,-0.96 h -0.01 l 7.22,-0.87 h -0.01 l 7.34,-0.79 h -0.01 l 7.45,-0.69 h -0.02 l 15.16,-1.09 h -0.02 l 15.4,-0.680001 h -0.03 l 15.53,-0.24 z m -165.19,30.220001 -0.59,11.16 9.29,-6.22 z"
           style="fill:#000000;fill-opacity:1;fill-rule:nonzero;stroke:none"
           id="path196"
           inkscape:connector-curvature="0" />
        <path
           d="m 648.81199,169.82199 h -15.87 l -15.74,0.02 -15.49,0.01 -7.61,0.01 -7.51,0.01 -7.38,0.01 -7.24,0.01 -7.08,0.02 h -6.92 l -6.73,0.02 -6.52,0.02 -6.32,0.02 -6.07,0.01 -5.83,0.02 -5.56,0.02 -5.29,0.02 -5,0.02 -4.68,0.02 -4.36,0.02 -4.01,0.03 -3.66,0.02 -3.29,0.02 -2.89,0.02 -2.5,0.03 -2.08,0.02 -1.65,0.02 -1.18,0.02 -0.44,0.01 -0.31,0.02 v 0 l -0.26,0.01 -0.14,0.03 -0.06,0.02 0.16,-0.03 -0.2,0.01 -0.3,0.02 h 0.03 -0.43 l -1.19,0.03 h 0.01 l -1.65,0.02 -2.07,0.02 -2.5,0.02 -2.89,0.03 -3.29,0.02 -3.65,0.02 -4.02,0.02 -4.35,0.02 -4.68,0.03 -5,0.01 -5.29,0.02 -5.56,0.02 -5.83,0.02 -6.07,0.02 -6.32,0.01 -6.52,0.02 -6.73,0.02 -6.91,0.01 -7.09,0.01 -7.24,0.02 h -7.38 l -7.51,0.01 -7.61,0.02 h -15.49 l -15.74,0.02 h -6.86 v 1.56 h 6.86 l 15.75,-0.02 h 15.48 l 7.62,-0.02 7.5,-0.01 h 7.38 l 7.24,-0.02 7.09,-0.01 6.91,-0.01 6.73,-0.02 6.53,-0.02 6.31,-0.01 6.08,-0.02 5.82,-0.02 5.57,-0.02 5.29,-0.02 4.99,-0.01 4.68,-0.03 4.36,-0.02 4.01,-0.02 3.67,-0.02 3.28,-0.03 2.9,-0.02 2.5,-0.02 2.08,-0.02 1.64,-0.03 1.19,-0.02 0.44,-0.01 0.31,-0.01 h -0.01 l 0.27,-0.01 0.14,-0.04 0.06,-0.01 -0.16,0.02 0.19,-0.01 0.3,-0.01 h -0.02 l 0.43,-0.01 1.18,-0.02 v 0 l 1.64,-0.02 2.07,-0.03 2.5,-0.02 2.9,-0.02 3.28,-0.02 3.66,-0.03 4.01,-0.02 4.36,-0.02 4.68,-0.02 4.99,-0.02 5.29,-0.02 5.57,-0.02 5.82,-0.02 6.08,-0.01 6.31,-0.02 6.53,-0.02 6.72,-0.02 h 6.92 l 7.09,-0.02 7.23,-0.01 7.38,-0.01 7.51,-0.01 7.61,-0.01 15.49,-0.01 15.74,-0.02 h 15.87 z m -328.84,-3.21 -10,5 10,5 z"
           style="fill:#000000;fill-opacity:1;fill-rule:nonzero;stroke:none"
           id="path198"
           inkscape:connector-curvature="0" />
        <path
           d="m 260.78199,455.83199 5.58,-0.05 5.59,-0.16 5.57,-0.26 5.53,-0.35 5.49,-0.45 5.43,-0.54 5.36,-0.63 5.3,-0.7 5.2,-0.79 5.11,-0.87 5,-0.94 4.87,-1.01 4.75,-1.09 4.61,-1.14 4.45,-1.2 4.29,-1.26 2.08,-0.66 2.04,-0.66 1.99,-0.68 1.94,-0.68 1.89,-0.71 1.85,-0.71 1.79,-0.73 1.74,-0.73 1.69,-0.75 1.63,-0.75 1.58,-0.77 1.51,-0.77 1.46,-0.79 1.4,-0.79 1.33,-0.8 1.28,-0.81 1.2,-0.82 1.15,-0.83 1.07,-0.83 1,-0.84 1,-0.9 0.93,-1.39 -1.3,-0.87 -0.87,1.31 0.12,-0.15 -0.91,0.83 0.02,-0.02 -0.98,0.83 0.02,-0.02 -1.05,0.81 0.02,-0.01 -1.12,0.81 0.01,-0.01 -1.18,0.81 0.02,-0.02 -1.26,0.8 0.01,-0.01 -1.31,0.79 0.02,-0.01 -1.38,0.78 0.01,-0.01 -1.44,0.78 h 0.01 l -1.5,0.76 0.02,-0.01 -1.56,0.76 0.01,-0.01 -1.62,0.75 h 0.01 l -1.67,0.74 h 0.01 l -1.73,0.72 h 0.01 l -1.78,0.72 h 0.01 l -1.83,0.71 0.01,-0.01 -1.89,0.7 h 0.02 l -1.94,0.68 h 0.01 l -1.98,0.67 h 0.01 l -2.03,0.66 h 0.01 l -2.07,0.65 0.02,-0.01 -4.28,1.26 0.02,-0.01 -4.44,1.2 h 0.01 l -4.59,1.14 0.02,-0.01 -4.74,1.08 h 0.02 l -4.86,1.01 0.01,-0.01 -4.98,0.94 h 0.01 l -5.09,0.87 h 0.01 l -5.19,0.78 h 0.01 l -5.28,0.71 h 0.02 l -5.35,0.62 h 0.01 l -5.42,0.54 h 0.01 l -5.47,0.45 0.01,-0.01 -5.52,0.36 h 0.02 l -5.55,0.25 h 0.01 l -5.57,0.16 h 0.01 l -5.58,0.05 z m 119.03,-26.11 0.1,-11.18 -9.01,6.63 z"
           style="fill:#000000;fill-opacity:1;fill-rule:nonzero;stroke:none"
           id="path200"
           inkscape:connector-curvature="0" />
        <path
           d="m 104.35199,455.05199 c 0,17.79 35,32.22 78.18,32.22 43.18,0 78.18,-14.43 78.18,-32.22 0,-17.79 -35,-32.22 -78.18,-32.22 -43.18,0 -78.18,14.43 -78.18,32.22 z"
           style="fill:#ffffff;fill-opacity:1;fill-rule:evenodd;stroke:none"
           id="path202"
           inkscape:connector-curvature="0" />
        <path
           d="m 104.35199,455.05199 c 0,17.79 35,32.22 78.18,32.22 43.18,0 78.18,-14.43 78.18,-32.22 0,-17.79 -35,-32.22 -78.18,-32.22 -43.18,0 -78.18,14.43 -78.18,32.22 z"
           style="fill:none;stroke:#000000;stroke-width:0.95999998;stroke-linecap:butt;stroke-linejoin:miter;stroke-miterlimit:10;stroke-dasharray:none;stroke-opacity:1"
           id="path204"
           inkscape:connector-curvature="0" />
        <g
           transform="translate(-4.7280107,-4.7280107)"
           id="g206">
          <g
             id="g208"
             clip-path="url(#clipPath212)">
            <text
               y="0"
               transform="matrix(1,0,0,-1,142.63,464.57)"
               style="font-variant:normal;font-weight:normal;font-size:18px;font-family:Calibri;-inkscape-font-specification:Calibri;writing-mode:lr-tb;fill:#000000;fill-opacity:1;fill-rule:nonzero;stroke:none"
               id="text216">
              <tspan
                 x="0 4.5359998 14.022 18.108 24.138 28.188 36.810001 40.950001 44.981998 51.821999 60.335999 66.365997 70.416 79.902"
                 y="0"
                 sodipodi:role="line"
                 id="tspan214">Initialization</tspan>
            </text>
          </g>
        </g>
        <g
           transform="translate(-4.7280107,-4.7280107)"
           id="g218">
          <g
             id="g220"
             clip-path="url(#clipPath224)">
            <text
               y="0"
               transform="matrix(1,0,0,-1,149.23,442.97)"
               style="font-variant:normal;font-weight:normal;font-size:18px;font-family:Calibri;-inkscape-font-specification:Calibri;writing-mode:lr-tb;fill:#000000;fill-opacity:1;fill-rule:nonzero;stroke:none"
               id="text228">
              <tspan
                 x="0 8.4060001 16.326 24.948 29.087999 38.537998 47.051998 53.082001 57.132 66.617996"
                 y="0"
                 sodipodi:role="line"
                 id="tspan226">Evaluation</tspan>
            </text>
          </g>
        </g>
        <path
           d="m 37.811989,455.83199 h 3.122 l 3.099,-0.02 h 3.045 l 2.972,-0.03 2.873,-0.02 2.763,-0.02 2.605,-0.04 1.243,-0.01 1.196,-0.02 1.15,-0.02 h -0.005 l 1.098,-0.02 1.038,-0.02 h -0.005 l 0.986,-0.01 0.927,-0.03 0.856,-0.02 0.789,-0.02 0.724,-0.02 0.648,-0.03 0.574,-0.02 0.501,-0.02 0.415,-0.02 0.338,-0.03 0.263,-0.02 0.293,-0.05 0.156,-0.07 0.045,-0.03 -0.227,0.08 0.142,-0.03 -0.049,0.01 0.24,-0.02 h -0.018 l 0.322,-0.02 h -0.011 l 0.405,-0.03 h -0.008 l 0.495,-0.02 h -0.004 l 0.57,-0.02 h -0.004 l 0.645,-0.02 h -0.003 l 0.72,-0.03 0.786,-0.02 0.853,-0.02 0.921,-0.02 h -0.007 l 0.985,-0.02 1.037,-0.02 h -0.006 l 1.097,-0.02 1.15,-0.02 h -0.005 l 1.192,-0.01 1.245,-0.02 2.602,-0.03 2.752,-0.03 2.878,-0.02 h -0.003 l 3.229,-0.01 v -1.56 l -3.237,0.01 -2.884,0.02 -2.753,0.03 -2.603,0.03 -1.245,0.02 -1.196,0.01 -1.15,0.03 h 0.005 l -1.098,0.01 -1.038,0.02 h 0.005 l -0.986,0.02 -0.928,0.02 -0.857,0.02 -0.789,0.03 -0.722,0.02 -0.648,0.02 -0.574,0.02 -0.501,0.03 -0.415,0.02 -0.337,0.02 -0.274,0.03 -0.286,0.04 -0.153,0.08 -0.045,0.02 0.233,-0.07 -0.15,0.02 h 0.041 l -0.233,0.02 h 0.021 l -0.322,0.02 h 0.011 l -0.405,0.02 h 0.008 l -0.495,0.02 h 0.004 l -0.57,0.03 h 0.004 l -0.645,0.02 h 0.003 l -0.718,0.02 -0.786,0.02 -0.854,0.03 -0.922,0.02 h 0.007 l -0.985,0.01 -1.037,0.03 h 0.006 l -1.097,0.01 -1.15,0.02 h 0.005 l -1.192,0.02 -1.247,0.01 -2.602,0.04 h 0.005 l -2.76,0.02 -2.872,0.03 -2.97,0.02 h 0.004 l -3.047,0.01 -3.098,0.01 h 0.004 -3.12 z m 56.647,3.25 9.983001,-5.03 -10.017001,-4.97 z"
           style="fill:#000000;fill-opacity:1;fill-rule:nonzero;stroke:none"
           id="path242"
           inkscape:connector-curvature="0" />
        <g
           transform="translate(-4.7280107,-4.7280107)"
           id="g244">
          <g
             id="g246"
             clip-path="url(#clipPath250)">
            <text
               y="0"
               transform="matrix(1,0,0,-1,52.224,464.3)"
               style="font-variant:normal;font-weight:normal;font-size:18px;font-family:Calibri;-inkscape-font-specification:Calibri;writing-mode:lr-tb;fill:#000000;fill-opacity:1;fill-rule:nonzero;stroke:none"
               id="text254">
              <tspan
                 x="0 8.2620001 14.04 22.662001 28.944"
                 y="0"
                 sodipodi:role="line"
                 id="tspan252">Start</tspan>
            </text>
          </g>
        </g>
        <path
           d="m 504.07199,388.99199 82.14,47.4 82.14,-47.4 -82.14,-47.4 z"
           style="fill:#ffffff;fill-opacity:1;fill-rule:evenodd;stroke:none"
           id="path256"
           inkscape:connector-curvature="0" />
        <path
           d="m 504.07199,388.99199 82.14,47.4 82.14,-47.4 -82.14,-47.4 z"
           style="fill:none;stroke:#000000;stroke-width:0.95999998;stroke-linecap:butt;stroke-linejoin:miter;stroke-miterlimit:10;stroke-dasharray:none;stroke-opacity:1"
           id="path258"
           inkscape:connector-curvature="0" />
        <g
           transform="translate(-4.7280107,-4.7280107)"
           id="g260">
          <g
             id="g262"
             clip-path="url(#clipPath266)">
            <text
               y="0"
               transform="matrix(1,0,0,-1,558.65,409.3)"
               style="font-variant:normal;font-weight:normal;font-size:18px;font-family:Calibri;-inkscape-font-specification:Calibri;writing-mode:lr-tb;fill:#000000;fill-opacity:1;fill-rule:nonzero;stroke:none"
               id="text270">
              <tspan
                 x="0 8.2620001 14.166 23.652 33.102001 42.551998 46.692001 56.141998 64.674004"
                 y="0"
                 sodipodi:role="line"
                 id="tspan268">Stopping</tspan>
            </text>
          </g>
        </g>
        <g
           transform="translate(-4.7280107,-4.7280107)"
           id="g272">
          <g
             id="g274"
             clip-path="url(#clipPath278)">
            <text
               y="0"
               transform="matrix(1,0,0,-1,565.25,387.7)"
               style="font-variant:normal;font-weight:normal;font-size:18px;font-family:Calibri;-inkscape-font-specification:Calibri;writing-mode:lr-tb;fill:#000000;fill-opacity:1;fill-rule:nonzero;stroke:none"
               id="text282">
              <tspan
                 x="0 7.5599999 13.842 17.874001 23.634001 32.598 38.880001 42.948002 51.57"
                 y="0"
                 sodipodi:role="line"
                 id="tspan280">criteria</tspan>
            </text>
          </g>
        </g>
        <g
           transform="translate(-4.7280107,-4.7280107)"
           id="g284">
          <g
             id="g286"
             clip-path="url(#clipPath290)">
            <text
               y="0"
               transform="matrix(1,0,0,-1,561.41,366.1)"
               style="font-variant:normal;font-weight:normal;font-size:18.02400017px;font-family:Calibri;-inkscape-font-specification:Calibri;writing-mode:lr-tb;fill:#000000;fill-opacity:1;fill-rule:nonzero;stroke:none"
               id="text294">
              <tspan
                 x="0 6.0019922 14.977944 23.611441 31.235592 40.698193 49.674145"
                 y="0"
                 sodipodi:role="line"
                 id="tspan292">reached</tspan>
            </text>
          </g>
        </g>
        <path
           d="m 668.43199,389.71199 2.77,-0.08 2.78,-0.25 2.77,-0.39 2.76,-0.56 2.73,-0.69 2.7,-0.84 2.67,-0.97 2.63,-1.1 2.58,-1.23 2.54,-1.34 2.47,-1.46 2.42,-1.56 2.35,-1.67 2.29,-1.77 2.2,-1.86 2.13,-1.95 2.04,-2.03 1.94,-2.11 1.85,-2.19 1.75,-2.25 1.64,-2.31 1.52,-2.37 1.4,-2.43 1.29,-2.47 1.14,-2.52 1.02,-2.55 0.88,-2.59 0.73,-2.64 0.24,-1.56 -1.54,-0.24 -0.23,1.52 0.02,-0.09 -0.72,2.57 0.02,-0.04 -0.87,2.55 0.02,-0.04 -1.01,2.51 0.02,-0.03 -1.13,2.48 0.01,-0.03 -1.26,2.43 0.01,-0.03 -1.39,2.4 0.02,-0.03 -1.5,2.34 0.02,-0.03 -1.62,2.29 0.02,-0.03 -1.72,2.22 0.02,-0.02 -1.83,2.16 0.02,-0.03 -1.92,2.09 0.02,-0.03 -2.01,2.01 0.02,-0.02 -2.1,1.93 0.02,-0.02 -2.18,1.84 0.03,-0.02 -2.26,1.75 0.03,-0.02 -2.33,1.65 0.03,-0.02 -2.39,1.54 0.02,-0.01 -2.44,1.44 0.03,-0.02 -2.51,1.33 0.04,-0.02 -2.55,1.21 0.03,-0.01 -2.6,1.08 0.04,-0.01 -2.63,0.96 0.03,-0.01 -2.66,0.82 0.04,-0.01 -2.69,0.68 h 0.03 l -2.71,0.54 h 0.04 l -2.73,0.39 0.04,-0.01 -2.73,0.24 h 0.04 l -2.74,0.08 z m 62.31,-46.26 -3.76,-10.53 -6.17,9.32 z"
           style="fill:#000000;fill-opacity:1;fill-rule:nonzero;stroke:none"
           id="path296"
           inkscape:connector-curvature="0" />
        <g
           transform="translate(-4.7280107,-4.7280107)"
           id="g298">
          <g
             id="g300"
             clip-path="url(#clipPath304)">
            <path
               d="m 590.28,441.11 0.03,0.57 0.11,0.61 0.18,0.6 0.24,0.59 0.3,0.58 0.35,0.57 0.42,0.57 0.47,0.55 0.52,0.55 0.57,0.53 0.63,0.53 0.67,0.53 0.73,0.52 0.76,0.51 0.82,0.52 0.87,0.5 0.9,0.49 0.95,0.5 2.04,0.97 2.19,0.94 2.36,0.92 2.52,0.89 2.66,0.87 2.79,0.83 2.92,0.81 3.06,0.78 3.15,0.73 3.28,0.7 3.36,0.66 3.47,0.62 3.55,0.58 3.63,0.52 3.69,0.49 3.75,0.43 3.81,0.38 3.86,0.34 3.9,0.27 3.93,0.22 2.85,0.1 0.05,-1.56 -2.84,-0.1 h 0.01 l -3.91,-0.21 h 0.01 l -3.88,-0.28 h 0.01 l -3.85,-0.33 h 0.01 l -3.79,-0.38 h 0.01 l -3.75,-0.43 h 0.02 l -3.69,-0.48 h 0.01 l -3.61,-0.53 0.01,0.01 -3.53,-0.58 h 0.01 l -3.46,-0.62 0.02,0.01 -3.35,-0.66 h 0.01 l -3.26,-0.7 0.01,0.01 -3.14,-0.73 h 0.01 l -3.04,-0.77 h 0.02 l -2.91,-0.8 h 0.01 l -2.77,-0.82 0.02,0.01 -2.64,-0.87 0.02,0.01 -2.49,-0.88 h 0.02 l -2.34,-0.91 0.03,0.01 -2.17,-0.93 0.02,0.01 -2.01,-0.95 0.03,0.01 -0.93,-0.49 0.01,0.01 -0.89,-0.49 0.02,0.01 -0.85,-0.49 0.03,0.02 -0.8,-0.5 0.02,0.01 -0.74,-0.5 0.02,0.02 -0.71,-0.51 0.03,0.03 -0.64,-0.51 0.02,0.02 -0.6,-0.51 0.03,0.02 -0.54,-0.51 0.02,0.03 -0.49,-0.51 0.03,0.04 -0.43,-0.52 0.03,0.04 -0.38,-0.52 0.03,0.05 -0.32,-0.52 0.03,0.06 -0.27,-0.52 0.03,0.06 -0.21,-0.52 0.02,0.07 -0.15,-0.52 0.02,0.09 -0.09,-0.52 0.01,0.09 -0.03,-0.53 z m 75.21,27.07 10.1,-4.79 -9.89,-5.21 z"
               style="fill:#000000;fill-opacity:1;fill-rule:nonzero;stroke:none"
               id="path306"
               inkscape:connector-curvature="0" />
          </g>
        </g>
        <path
           d="m 670.75199,458.71199 c 0,17.83 35,32.28 78.18,32.28 43.18,0 78.18,-14.45 78.18,-32.28 0,-17.83 -35,-32.28 -78.18,-32.28 -43.18,0 -78.18,14.45 -78.18,32.28 z"
           style="fill:#ffffff;fill-opacity:1;fill-rule:evenodd;stroke:none"
           id="path308"
           inkscape:connector-curvature="0" />
        <path
           d="m 670.75199,458.71199 c 0,17.83 35,32.28 78.18,32.28 43.18,0 78.18,-14.45 78.18,-32.28 0,-17.83 -35,-32.28 -78.18,-32.28 -43.18,0 -78.18,14.45 -78.18,32.28 z"
           style="fill:none;stroke:#000000;stroke-width:0.95999998;stroke-linecap:butt;stroke-linejoin:miter;stroke-miterlimit:10;stroke-dasharray:none;stroke-opacity:1"
           id="path310"
           inkscape:connector-curvature="0" />
        <g
           transform="translate(-4.7280107,-4.7280107)"
           id="g312">
          <g
             id="g314"
             clip-path="url(#clipPath318)">
            <text
               y="0"
               transform="matrix(1,0,0,-1,729.02,468.24)"
               style="font-variant:normal;font-weight:normal;font-size:18px;font-family:Calibri;-inkscape-font-specification:Calibri;writing-mode:lr-tb;fill:#000000;fill-opacity:1;fill-rule:nonzero;stroke:none"
               id="text322">
              <tspan
                 x="0 9.3599997 18.233999 24.264 33.714001 39.995998 49.445999"
                 y="0"
                 sodipodi:role="line"
                 id="tspan320">Return</tspan>
            </text>
          </g>
        </g>
        <g
           transform="translate(-4.7280107,-4.7280107)"
           id="g324">
          <g
             id="g326"
             clip-path="url(#clipPath330)">
            <text
               y="0"
               transform="matrix(1,0,0,-1,700.58,446.64)"
               style="font-variant:normal;font-weight:normal;font-size:18px;font-family:Calibri;-inkscape-font-specification:Calibri;writing-mode:lr-tb;fill:#000000;fill-opacity:1;fill-rule:nonzero;stroke:none"
               id="text334">
              <tspan
                 x="0 9.4499998 18.468 25.308001 31.337999 35.405998 39.473999 48.924 58.41 62.495998 70.632004 74.772003 84.222 93.671997 102.294"
                 y="0"
                 sodipodi:role="line"
                 id="tspan332">best individual</tspan>
            </text>
          </g>
        </g>
        <g
           transform="translate(-4.7280107,-4.7280107)"
           id="g336">
          <g
             id="g338"
             clip-path="url(#clipPath342)">
            <text
               y="0"
               transform="matrix(1,0,0,-1,622.51,464.3)"
               style="font-variant:normal;font-weight:normal;font-size:18px;font-family:Calibri;-inkscape-font-specification:Calibri;writing-mode:lr-tb;fill:#000000;fill-opacity:1;fill-rule:nonzero;stroke:none"
               id="text346">
              <tspan
                 x="0 7.434 16.398001"
                 y="0"
                 sodipodi:role="line"
                 id="tspan344">Yes</tspan>
            </text>
          </g>
        </g>
        <g
           transform="translate(-4.7280107,-4.7280107)"
           id="g348">
          <g
             id="g350"
             clip-path="url(#clipPath354)">
            <text
               y="0"
               transform="matrix(1,0,0,-1,691.7,362.74)"
               style="font-variant:normal;font-weight:normal;font-size:18px;font-family:Calibri;-inkscape-font-specification:Calibri;writing-mode:lr-tb;fill:#000000;fill-opacity:1;fill-rule:nonzero;stroke:none"
               id="text358">
              <tspan
                 x="0 11.64"
                 y="0"
                 sodipodi:role="line"
                 id="tspan356">No</tspan>
            </text>
          </g>
        </g>
        <path
           d="m 827.17199,459.43199 h 2.99 l 2.97,-0.02 h 2.92 l 2.85,-0.03 2.75,-0.02 2.64,-0.02 2.5,-0.04 1.19,-0.01 1.15,-0.02 1.1,-0.02 h -0.01 l 1.05,-0.02 1,-0.02 v 0 l 0.94,-0.01 0.89,-0.03 0.83,-0.02 0.75,-0.02 0.69,-0.02 0.63,-0.03 0.55,-0.02 0.47,-0.02 0.4,-0.02 0.33,-0.03 0.26,-0.02 0.28,-0.05 0.15,-0.07 0.04,-0.03 -0.22,0.07 0.14,-0.02 -0.05,0.01 0.22,-0.02 h -0.02 l 0.32,-0.02 h -0.02 l 0.39,-0.03 v 0 l 0.46,-0.02 v 0 l 0.54,-0.02 v 0 l 0.62,-0.02 v 0 l 0.69,-0.03 0.75,-0.02 0.82,-0.02 0.88,-0.02 v 0 l 0.94,-0.02 1,-0.02 h -0.01 l 1.05,-0.02 1.1,-0.02 v 0 l 1.14,-0.01 1.19,-0.02 2.49,-0.03 2.64,-0.03 v 0 l 2.75,-0.02 v 0 l 2.72,-0.01 v -1.56 l -2.73,0.01 -2.75,0.02 -2.64,0.03 -2.5,0.03 -1.19,0.02 -1.15,0.01 -1.1,0.03 h 0.01 l -1.05,0.01 -1.01,0.02 h 0.01 l -0.94,0.02 -0.89,0.02 -0.83,0.02 -0.75,0.03 -0.69,0.02 -0.63,0.02 -0.55,0.02 -0.47,0.03 -0.4,0.02 -0.33,0.02 -0.26,0.03 -0.28,0.04 -0.15,0.08 -0.04,0.02 0.22,-0.07 -0.14,0.02 h 0.05 l -0.22,0.02 h 0.02 l -0.32,0.02 h 0.01 l -0.39,0.02 h 0.01 l -0.46,0.02 v 0 l -0.54,0.03 v 0 l -0.62,0.02 v 0 l -0.69,0.02 -0.75,0.02 -0.82,0.03 -0.88,0.02 v 0 l -0.94,0.01 -1,0.03 h 0.01 l -1.05,0.01 -1.1,0.02 v 0 l -1.14,0.02 -1.19,0.01 -2.5,0.04 h 0.01 l -2.64,0.02 -2.75,0.03 -2.85,0.02 v 0 l -2.92,0.01 -2.97,0.01 v 0 h -2.98 z m 53.86,3.25 9.98,-5.03 -10.02,-4.97 z"
           style="fill:#000000;fill-opacity:1;fill-rule:nonzero;stroke:none"
           id="path360"
           inkscape:connector-curvature="0" />
        <g
           transform="translate(-4.7280107,-4.7280107)"
           id="g362">
          <g
             id="g364"
             clip-path="url(#clipPath368)">
            <text
               y="0"
               transform="matrix(1,0,0,-1,850.92,467.95)"
               style="font-variant:normal;font-weight:normal;font-size:18px;font-family:Calibri;-inkscape-font-specification:Calibri;writing-mode:lr-tb;fill:#000000;fill-opacity:1;fill-rule:nonzero;stroke:none"
               id="text372">
              <tspan
                 x="0 8.7840004 18.233999"
                 y="0"
                 sodipodi:role="line"
                 id="tspan370">End</tspan>
            </text>
          </g>
        </g>
      </g>
    </g>
  </g>
</svg>
